:SAMPLES-PER-SECOND 30
:FULLY-SPECIFIED
:DEGREES
795
root  25.8408 38.4131 11.8607 163.772 61.2655 170.768
RightUpLeg  -13.8547 -0.91702 -12.3318
RightLeg  56.7105 2.55355 3.78251
RightFoot  0.483731 -1.0357 10.0032
RightToes  6.35927e-011 1.30204e-014 -6.03759e-014
Spine  6.94201 0.678757 -4.08596
Spine1  9.01123 1.50321 -7.20194
HEad  -17.4112 -5.69981 -6.08315
LeftShoulder1  -0.603021 5.09246 -31.8065
LeftArm  4.86577 9.61611 -39.4092
LeftForeArm  24.5915 -39.6324 -7.70899
LeftHand  -0.0147513 5.92921 3.0429
RightShoulder  -0.574246 -5.20676 26.9643
RightArm  13.2454 -1.43444 47.0553
RightForeArm  1.71926 15.7685 5.3348
RightHand  -0.262832 2.22245 -4.20157
LeftUpLeg  -3.28079 3.41555 -11.1229
LeftLeg  20.2911 4.02983 1.42948
LeftFoot  -7.11018 -0.415786 12.3683
LeftToes  -7.16024e-010 4.79583e-011 -5.98286e-011
796
root  26.722 38.4699 11.9539 165.119 57.1408 171.91
RightUpLeg  -14.69 2.27633 -13.9154
RightLeg  49.5368 2.2172 2.43877
RightFoot  -1.31065 -0.805594 9.06492
RightToes  6.35927e-011 1.30204e-014 -6.03759e-014
Spine  7.21346 0.461022 -3.92679
Spine1  8.91853 1.42591 -7.48048
HEad  -17.3721 -8.16899 -5.33519
LeftShoulder1  -0.55837 4.98617 -31.5207
LeftArm  3.78454 9.36861 -39.024
LeftForeArm  24.4466 -43.032 -8.79971
LeftHand  -0.0209886 5.54259 3.93219
RightShoulder  -0.580047 -5.22716 26.9062
RightArm  12.4158 -1.32969 46.5554
RightForeArm  1.92667 15.3431 5.29432
RightHand  -0.283529 2.29878 -4.4762
LeftUpLeg  -2.09261 2.4885 -10.6394
LeftLeg  20.3284 0.802036 0.592723
LeftFoot  -7.9784 -0.308762 12.1155
LeftToes  -7.16024e-010 4.79583e-011 -5.98286e-011
797
root  27.6144 38.5044 12.0368 166.084 52.8521 172.093
RightUpLeg  -15.0494 6.00503 -16.4051
RightLeg  41.2657 2.20607 1.78629
RightFoot  -1.97157 -0.639108 7.63433
RightToes  6.35927e-011 1.30204e-014 -6.03759e-014
Spine  6.89484 0.327283 -3.95268
Spine1  9.00462 1.48997 -7.75651
HEad  -16.9885 -11.0505 -4.64399
LeftShoulder1  -0.519417 4.88716 -31.404
LeftArm  2.68172 9.0995 -38.5222
LeftForeArm  23.7354 -45.4242 -9.69326
LeftHand  -0.0365216 5.06846 5.04451
RightShoulder  -0.556829 -5.17151 26.6186
RightArm  12.0314 -1.41211 46.2409
RightForeArm  2.62715 14.533 5.39338
RightHand  -0.265914 2.25433 -4.23045
LeftUpLeg  -1.44128 0.97909 -10.5848
LeftLeg  20.3197 -2.10242 -0.125144
LeftFoot  -8.65682 -0.22579 11.8174
LeftToes  -7.16024e-010 4.79583e-011 -5.98286e-011
798
root  28.502 38.5119 12.1037 166.874 48.317 171.759
RightUpLeg  -14.8402 10.7261 -19.6006
RightLeg  32.5034 1.97799 1.1464
RightFoot  -2.66066 -0.453199 5.69777
RightToes  6.35927e-011 1.30204e-014 -6.03759e-014
Spine  6.48571 0.172972 -3.93283
Spine1  8.99588 1.57979 -8.11538
HEad  -16.4604 -13.4029 -4.09256
LeftShoulder1  -0.495984 4.82414 -31.422
LeftArm  1.26628 8.7998 -37.936
LeftForeArm  23.3505 -46.7399 -10.2211
LeftHand  -0.0653375 4.44441 5.75125
RightShoulder  -0.540065 -5.12873 26.4523
RightArm  12.0604 -1.71095 45.9386
RightForeArm  3.22944 13.5907 5.61169
RightHand  -0.253723 2.21682 -4.06247
LeftUpLeg  -1.05983 -1.04599 -10.8164
LeftLeg  20.2695 -4.62674 -0.772858
LeftFoot  -9.29669 -0.144412 11.19
LeftToes  -7.16024e-010 4.79583e-011 -5.98286e-011
799
root  29.3765 38.4933 12.145 167.509 43.5944 171.449
RightUpLeg  -13.902 15.654 -22.7455
RightLeg  24.1393 0.758474 0.244353
RightFoot  -4.31965 -0.244199 3.47266
RightToes  6.35927e-011 1.30204e-014 -6.03759e-014
Spine  6.41803 -0.0164431 -3.25629
Spine1  8.95567 1.74299 -8.9122
HEad  -16.8119 -12.6052 -4.69827
LeftShoulder1  -0.470641 4.75973 -31.3296
LeftArm  -0.563333 8.37685 -37.5589
LeftForeArm  23.4482 -46.8235 -10.2487
LeftHand  -0.0915891 3.92011 5.9488
RightShoulder  -0.555947 -5.1721 26.5526
RightArm  11.9549 -2.37577 45.705
RightForeArm  3.73353 12.8148 5.76739
RightHand  -0.259519 2.07126 -4.22124
LeftUpLeg  -0.5672 -3.56693 -11.0278
LeftLeg  20.3358 -6.69465 -1.42434
LeftFoot  -10.0333 -0.0601444 10.5558
LeftToes  -7.16024e-010 4.79583e-011 -5.98286e-011
800
root  30.2645 38.4651 12.172 168.138 38.8697 171.365
RightUpLeg  -12.2167 17.3633 -24.5682
RightLeg  16.8219 1.85311 -0.0261762
RightFoot  -6.21243 -0.169948 2.96444
RightToes  6.35927e-011 1.30204e-014 -6.03759e-014
Spine  6.34923 -0.135365 -2.04928
Spine1  9.24425 2.01133 -9.75395
HEad  -18.2494 -7.36673 -7.61779
LeftShoulder1  -0.446623 4.70428 -31.064
LeftArm  -2.62676 7.84038 -37.5357
LeftForeArm  23.2277 -45.63 -9.81086
LeftHand  -0.0997966 3.87175 6.45476
RightShoulder  -0.589729 -5.26065 26.8247
RightArm  11.633 -3.1912 45.5563
RightForeArm  4.1219 12.1332 5.84637
RightHand  -0.262443 1.82888 -4.38898
LeftUpLeg  -0.0215865 -6.87552 -11.0293
LeftLeg  20.5322 -8.04744 -2.06709
LeftFoot  -10.7898 0.0165848 10.0702
LeftToes  -7.16024e-010 4.79583e-011 -5.98286e-011
801
root  31.2216 38.4061 12.2282 168.95 34.5364 171.291
RightUpLeg  -10.2467 10.878 -23.8415
RightLeg  11.5597 11.8006 -0.258815
RightFoot  -6.85176 -0.296977 6.24386
RightToes  6.35927e-011 1.30204e-014 -6.03759e-014
Spine  5.92308 -0.0199412 -1.14443
Spine1  9.76469 2.36789 -10.0489
HEad  -19.578 -1.31583 -11.0357
LeftShoulder1  -0.46539 4.75785 -30.965
LeftArm  -4.81322 7.35823 -37.4492
LeftForeArm  22.2494 -43.4398 -9.09276
LeftHand  -0.0940742 4.20749 7.65475
RightShoulder  -0.612314 -5.31041 27.1676
RightArm  11.4886 -3.58403 45.4671
RightForeArm  4.50672 11.1608 6.03911
RightHand  -0.256202 1.74306 -4.33382
LeftUpLeg  0.0477372 -10.9593 -10.7323
LeftLeg  21.064 -8.4445 -2.68037
LeftFoot  -11.7382 0.102306 9.28053
LeftToes  -7.16024e-010 4.79583e-011 -5.98286e-011
802
root  32.2405 38.3045 12.3347 169.89 31.0544 171.224
RightUpLeg  -9.33345 2.9567 -22.2484
RightLeg  9.9925 22.8663 -0.365821
RightFoot  -5.94193 -0.580026 11.366
RightToes  6.35927e-011 1.30204e-014 -6.03759e-014
Spine  5.6772 0.313326 -0.292277
Spine1  9.93931 2.87254 -10.3069
HEad  -20.5968 4.86906 -14.4266
LeftShoulder1  -0.525948 4.91007 -31.2519
LeftArm  -7.23029 7.1602 -36.7641
LeftForeArm  21.0976 -40.7318 -8.27484
LeftHand  -0.0929998 4.36232 8.70819
RightShoulder  -0.618258 -5.30981 27.5099
RightArm  11.4665 -3.29967 45.7028
RightForeArm  5.38278 9.78973 6.3282
RightHand  -0.250686 1.79728 -4.21596
LeftUpLeg  -0.387622 -14.9603 -9.99668
LeftLeg  21.9738 -8.26689 -3.19117
LeftFoot  -13.0472 0.198019 8.04156
LeftToes  -7.16024e-010 4.79583e-011 -5.98286e-011
803
root  33.2227 38.2105 12.4596 170.75 28.3632 171.61
RightUpLeg  -9.54279 5.448 -22.0353
RightLeg  12.3075 20.5519 1.70928
RightFoot  -5.14342 -0.783603 13.8105
RightToes  6.35927e-011 1.30204e-014 -6.03759e-014
Spine  6.26548 0.575033 1.90005
Spine1  9.64512 3.53472 -11.4519
HEad  -21.3139 10.5813 -17.4804
LeftShoulder1  -0.557011 4.97871 -31.6226
LeftArm  -9.86304 7.35055 -35.632
LeftForeArm  20.221 -37.6929 -7.41521
LeftHand  -0.104054 4.2409 8.99192
RightShoulder  -0.617191 -5.29784 27.6762
RightArm  11.1516 -2.70771 46.5785
RightForeArm  6.71808 8.5647 6.4384
RightHand  -0.245744 1.66285 -4.20446
LeftUpLeg  -0.674924 -18.1892 -8.75879
LeftLeg  22.8605 -8.2341 -3.46695
LeftFoot  -14.3759 0.271253 6.94499
LeftToes  -7.16024e-010 4.79583e-011 -5.98286e-011
804
root  34.1056 38.1827 12.5571 171.677 25.7471 172.718
RightUpLeg  -9.68472 7.94381 -21.2905
RightLeg  15.343 14.9347 3.48493
RightFoot  -5.87611 -0.665878 13.01
RightToes  6.35927e-011 1.30204e-014 -6.03759e-014
Spine  7.17097 0.512906 5.59427
Spine1  9.39359 4.07929 -12.9755
HEad  -21.6797 15.6691 -20.255
LeftShoulder1  -0.52715 4.8957 -31.7268
LeftArm  -12.436 7.89444 -34.8039
LeftForeArm  19.3001 -34.1324 -6.4944
LeftHand  -0.0987797 4.32495 9.11192
RightShoulder  -0.609327 -5.28076 27.5586
RightArm  10.8175 -2.23704 47.6468
RightForeArm  7.46346 8.30471 6.37961
RightHand  -0.238714 1.36892 -4.24024
LeftUpLeg  -0.727136 -21.0784 -6.9822
LeftLeg  23.4364 -8.35754 -3.61388
LeftFoot  -15.2204 0.303837 6.25942
LeftToes  -7.16024e-010 4.79583e-011 -5.98286e-011
805
root  34.9173 38.2451 12.6202 173.108 22.6093 174.21
RightUpLeg  -9.35495 4.73753 -19.3631
RightLeg  17.0011 13.5905 4.01546
RightFoot  -7.21446 -0.467496 11.5948
RightToes  6.35927e-011 1.30204e-014 -6.03759e-014
Spine  7.31527 0.279987 9.16112
Spine1  9.39167 4.18054 -13.221
HEad  -21.3711 20.3183 -22.7471
LeftShoulder1  -0.508644 4.84895 -31.6696
LeftArm  -14.6276 8.79513 -34.7067
LeftForeArm  18.0837 -30.1104 -5.5576
LeftHand  -0.075385 4.66761 9.49181
RightShoulder  -0.595635 -5.24955 27.3783
RightArm  11.5831 -1.85607 47.8329
RightForeArm  6.71465 9.38946 6.49482
RightHand  -0.2427 1.41962 -4.28185
LeftUpLeg  -1.47673 -23.2199 -4.50898
LeftLeg  23.8743 -8.69203 -3.85687
LeftFoot  -15.3122 0.27433 5.25598
LeftToes  -7.16024e-010 4.79583e-011 -5.98286e-011
806
root  35.7103 38.3732 12.6851 175.001 19.0291 175.414
RightUpLeg  -9.02613 -0.403641 -17.3042
RightLeg  17.1915 14.4918 3.97147
RightFoot  -7.73574 -0.397448 10.9336
RightToes  6.35927e-011 1.30204e-014 -6.03759e-014
Spine  6.70646 0.216088 11.1447
Spine1  9.18946 3.86136 -11.7265
HEad  -20.3217 24.3028 -24.6869
LeftShoulder1  -0.557418 4.97843 -31.6545
LeftArm  -15.8971 10.0879 -35.0685
LeftForeArm  16.4283 -26.2086 -4.74716
LeftHand  -0.0558359 4.92023 9.48627
RightShoulder  -0.591011 -5.23419 27.4094
RightArm  14.0508 -1.36429 46.7862
RightForeArm  4.71315 11.4967 6.69842
RightHand  -0.272507 1.9948 -4.46055
LeftUpLeg  -3.60107 -23.2394 -1.58714
LeftLeg  24.6811 -9.05907 -4.19143
LeftFoot  -14.5092 0.181775 3.34179
LeftToes  -7.16024e-010 4.79583e-011 -5.98286e-011
